<mxfile host="Electron" agent="Mozilla/5.0 (Windows NT 10.0; Win64; x64) AppleWebKit/537.36 (KHTML, like Gecko) draw.io/26.2.2 Chrome/134.0.6998.178 Electron/35.1.2 Safari/537.36" version="26.2.2">
  <diagram id="C5RBs43oDa-KdzZeNtuy" name="Page-1">
    <mxGraphModel dx="2849" dy="1818" grid="1" gridSize="10" guides="1" tooltips="1" connect="1" arrows="1" fold="1" page="1" pageScale="1" pageWidth="1169" pageHeight="827" math="0" shadow="0">
      <root>
        <mxCell id="WIyWlLk6GJQsqaUBKTNV-0" />
        <mxCell id="WIyWlLk6GJQsqaUBKTNV-1" parent="WIyWlLk6GJQsqaUBKTNV-0" />
        <mxCell id="AsCqRjYwgtlMNmhTpIwb-42" value="" style="rounded=0;whiteSpace=wrap;html=1;fillColor=none;strokeWidth=3;" vertex="1" parent="WIyWlLk6GJQsqaUBKTNV-1">
          <mxGeometry x="120" y="10" width="1290" height="410" as="geometry" />
        </mxCell>
        <mxCell id="AsCqRjYwgtlMNmhTpIwb-56" style="edgeStyle=orthogonalEdgeStyle;rounded=0;orthogonalLoop=1;jettySize=auto;html=1;exitX=0.25;exitY=1;exitDx=0;exitDy=0;entryX=0.5;entryY=0;entryDx=0;entryDy=0;" edge="1" parent="WIyWlLk6GJQsqaUBKTNV-1" source="AsCqRjYwgtlMNmhTpIwb-8" target="AsCqRjYwgtlMNmhTpIwb-44">
          <mxGeometry relative="1" as="geometry" />
        </mxCell>
        <mxCell id="AsCqRjYwgtlMNmhTpIwb-57" style="edgeStyle=orthogonalEdgeStyle;rounded=0;orthogonalLoop=1;jettySize=auto;html=1;exitX=0.75;exitY=1;exitDx=0;exitDy=0;" edge="1" parent="WIyWlLk6GJQsqaUBKTNV-1" source="AsCqRjYwgtlMNmhTpIwb-8" target="AsCqRjYwgtlMNmhTpIwb-43">
          <mxGeometry relative="1" as="geometry" />
        </mxCell>
        <mxCell id="AsCqRjYwgtlMNmhTpIwb-8" value="MQI_communicator" style="rounded=1;whiteSpace=wrap;html=1;fontSize=24;glass=0;strokeWidth=5;shadow=0;fillColor=#d5e8d4;strokeColor=#82b366;textShadow=0;labelBorderColor=none;gradientColor=#97d077;" vertex="1" parent="WIyWlLk6GJQsqaUBKTNV-1">
          <mxGeometry x="140" y="-10" width="1250" height="40" as="geometry" />
        </mxCell>
        <mxCell id="AsCqRjYwgtlMNmhTpIwb-19" style="edgeStyle=orthogonalEdgeStyle;rounded=0;orthogonalLoop=1;jettySize=auto;html=1;exitX=1;exitY=0.5;exitDx=0;exitDy=0;entryX=0;entryY=0.5;entryDx=0;entryDy=0;" edge="1" parent="WIyWlLk6GJQsqaUBKTNV-1" source="WIyWlLk6GJQsqaUBKTNV-3" target="AsCqRjYwgtlMNmhTpIwb-1">
          <mxGeometry relative="1" as="geometry" />
        </mxCell>
        <mxCell id="AsCqRjYwgtlMNmhTpIwb-24" style="edgeStyle=orthogonalEdgeStyle;rounded=0;orthogonalLoop=1;jettySize=auto;html=1;entryX=0.5;entryY=0;entryDx=0;entryDy=0;" edge="1" parent="WIyWlLk6GJQsqaUBKTNV-1" source="WIyWlLk6GJQsqaUBKTNV-3" target="AsCqRjYwgtlMNmhTpIwb-12">
          <mxGeometry relative="1" as="geometry" />
        </mxCell>
        <mxCell id="WIyWlLk6GJQsqaUBKTNV-3" value="&lt;font&gt;Input&lt;/font&gt;" style="rounded=1;whiteSpace=wrap;html=1;fontSize=18;glass=0;strokeWidth=1;shadow=0;fillColor=#f9f7ed;strokeColor=#36393d;" parent="WIyWlLk6GJQsqaUBKTNV-1" vertex="1">
          <mxGeometry x="150" y="220" width="140" height="80" as="geometry" />
        </mxCell>
        <mxCell id="AsCqRjYwgtlMNmhTpIwb-20" style="edgeStyle=orthogonalEdgeStyle;rounded=0;orthogonalLoop=1;jettySize=auto;html=1;exitX=1;exitY=0.5;exitDx=0;exitDy=0;entryX=0;entryY=0.5;entryDx=0;entryDy=0;" edge="1" parent="WIyWlLk6GJQsqaUBKTNV-1" source="AsCqRjYwgtlMNmhTpIwb-1" target="AsCqRjYwgtlMNmhTpIwb-2">
          <mxGeometry relative="1" as="geometry" />
        </mxCell>
        <mxCell id="AsCqRjYwgtlMNmhTpIwb-25" style="edgeStyle=orthogonalEdgeStyle;rounded=0;orthogonalLoop=1;jettySize=auto;html=1;entryX=0.5;entryY=0;entryDx=0;entryDy=0;" edge="1" parent="WIyWlLk6GJQsqaUBKTNV-1" source="AsCqRjYwgtlMNmhTpIwb-1" target="AsCqRjYwgtlMNmhTpIwb-13">
          <mxGeometry relative="1" as="geometry" />
        </mxCell>
        <mxCell id="AsCqRjYwgtlMNmhTpIwb-1" value="&lt;font&gt;Preprocessing&lt;/font&gt;" style="rounded=1;whiteSpace=wrap;html=1;fontSize=18;glass=0;strokeWidth=1;shadow=0;fillColor=#f9f7ed;strokeColor=#36393d;" vertex="1" parent="WIyWlLk6GJQsqaUBKTNV-1">
          <mxGeometry x="334" y="220" width="140" height="80" as="geometry" />
        </mxCell>
        <mxCell id="AsCqRjYwgtlMNmhTpIwb-22" style="edgeStyle=orthogonalEdgeStyle;rounded=0;orthogonalLoop=1;jettySize=auto;html=1;exitX=1;exitY=0.5;exitDx=0;exitDy=0;entryX=0;entryY=0.5;entryDx=0;entryDy=0;" edge="1" parent="WIyWlLk6GJQsqaUBKTNV-1" source="AsCqRjYwgtlMNmhTpIwb-3" target="AsCqRjYwgtlMNmhTpIwb-5">
          <mxGeometry relative="1" as="geometry" />
        </mxCell>
        <mxCell id="AsCqRjYwgtlMNmhTpIwb-54" style="edgeStyle=orthogonalEdgeStyle;rounded=0;orthogonalLoop=1;jettySize=auto;html=1;exitX=0.5;exitY=1;exitDx=0;exitDy=0;entryX=0.5;entryY=0;entryDx=0;entryDy=0;" edge="1" parent="WIyWlLk6GJQsqaUBKTNV-1" source="AsCqRjYwgtlMNmhTpIwb-3" target="AsCqRjYwgtlMNmhTpIwb-47">
          <mxGeometry relative="1" as="geometry" />
        </mxCell>
        <mxCell id="AsCqRjYwgtlMNmhTpIwb-3" value="Conversion" style="rounded=1;whiteSpace=wrap;html=1;fontSize=18;glass=0;strokeWidth=1;shadow=0;fillColor=#f9f7ed;strokeColor=#36393d;" vertex="1" parent="WIyWlLk6GJQsqaUBKTNV-1">
          <mxGeometry x="1037" y="220" width="140" height="80" as="geometry" />
        </mxCell>
        <mxCell id="AsCqRjYwgtlMNmhTpIwb-55" style="edgeStyle=orthogonalEdgeStyle;rounded=0;orthogonalLoop=1;jettySize=auto;html=1;exitX=0.5;exitY=1;exitDx=0;exitDy=0;entryX=0.5;entryY=0;entryDx=0;entryDy=0;" edge="1" parent="WIyWlLk6GJQsqaUBKTNV-1" source="AsCqRjYwgtlMNmhTpIwb-5" target="AsCqRjYwgtlMNmhTpIwb-17">
          <mxGeometry relative="1" as="geometry" />
        </mxCell>
        <mxCell id="AsCqRjYwgtlMNmhTpIwb-5" value="Gamma Analysis" style="rounded=1;whiteSpace=wrap;html=1;fontSize=18;glass=0;strokeWidth=1;shadow=0;fillColor=#f9f7ed;strokeColor=#36393d;" vertex="1" parent="WIyWlLk6GJQsqaUBKTNV-1">
          <mxGeometry x="1239" y="220" width="140" height="80" as="geometry" />
        </mxCell>
        <mxCell id="AsCqRjYwgtlMNmhTpIwb-7" value="MQI_interpreter" style="rounded=1;whiteSpace=wrap;html=1;fontSize=16;glass=0;strokeWidth=1;shadow=0;fillColor=#008a00;strokeColor=#005700;fontColor=#ffffff;" vertex="1" parent="WIyWlLk6GJQsqaUBKTNV-1">
          <mxGeometry x="339" y="180" width="130" height="30" as="geometry" />
        </mxCell>
        <mxCell id="AsCqRjYwgtlMNmhTpIwb-9" value="Raw2dcm" style="rounded=1;whiteSpace=wrap;html=1;fontSize=16;glass=0;strokeWidth=1;shadow=0;fillColor=#008a00;strokeColor=#005700;fontColor=#ffffff;" vertex="1" parent="WIyWlLk6GJQsqaUBKTNV-1">
          <mxGeometry x="1042" y="180" width="130" height="30" as="geometry" />
        </mxCell>
        <mxCell id="AsCqRjYwgtlMNmhTpIwb-10" value="Gamma_cli" style="rounded=1;whiteSpace=wrap;html=1;fontSize=16;glass=0;strokeWidth=1;shadow=0;fillColor=#008a00;strokeColor=#005700;fontColor=#ffffff;" vertex="1" parent="WIyWlLk6GJQsqaUBKTNV-1">
          <mxGeometry x="1244" y="180" width="130" height="30" as="geometry" />
        </mxCell>
        <mxCell id="AsCqRjYwgtlMNmhTpIwb-12" value="New case detected &lt;br&gt;in watch folder" style="rounded=1;whiteSpace=wrap;html=1;fontSize=12;glass=0;strokeWidth=1;shadow=0;" vertex="1" parent="WIyWlLk6GJQsqaUBKTNV-1">
          <mxGeometry x="150" y="340" width="140" height="70" as="geometry" />
        </mxCell>
        <mxCell id="AsCqRjYwgtlMNmhTpIwb-13" value="Convert .ptn to CSV" style="rounded=1;whiteSpace=wrap;html=1;fontSize=12;glass=0;strokeWidth=1;shadow=0;" vertex="1" parent="WIyWlLk6GJQsqaUBKTNV-1">
          <mxGeometry x="334" y="340" width="140" height="70" as="geometry" />
        </mxCell>
        <mxCell id="AsCqRjYwgtlMNmhTpIwb-16" value="Download .raw" style="rounded=1;whiteSpace=wrap;html=1;fontSize=12;glass=0;strokeWidth=1;shadow=0;" vertex="1" parent="WIyWlLk6GJQsqaUBKTNV-1">
          <mxGeometry x="851" y="340" width="140" height="70" as="geometry" />
        </mxCell>
        <mxCell id="AsCqRjYwgtlMNmhTpIwb-17" value="Run gamma_cli.py &lt;br&gt;on DICOM files" style="rounded=1;whiteSpace=wrap;html=1;fontSize=12;glass=0;strokeWidth=1;shadow=0;" vertex="1" parent="WIyWlLk6GJQsqaUBKTNV-1">
          <mxGeometry x="1239" y="340" width="140" height="70" as="geometry" />
        </mxCell>
        <mxCell id="AsCqRjYwgtlMNmhTpIwb-27" value="..." style="text;html=1;align=center;verticalAlign=middle;whiteSpace=wrap;rounded=0;fontSize=40;fontStyle=1" vertex="1" parent="WIyWlLk6GJQsqaUBKTNV-1">
          <mxGeometry x="674" y="352" width="50" height="30" as="geometry" />
        </mxCell>
        <mxCell id="AsCqRjYwgtlMNmhTpIwb-38" value="Program:" style="rounded=1;whiteSpace=wrap;html=1;fontSize=24;glass=0;strokeWidth=1;shadow=0;fillColor=#008a00;strokeColor=#005700;fontColor=#ffffff;" vertex="1" parent="WIyWlLk6GJQsqaUBKTNV-1">
          <mxGeometry x="-24" y="40" width="130" height="170" as="geometry" />
        </mxCell>
        <mxCell id="AsCqRjYwgtlMNmhTpIwb-39" value="&lt;font&gt;Input:&lt;/font&gt;" style="rounded=1;whiteSpace=wrap;html=1;fontSize=24;glass=0;strokeWidth=1;shadow=0;fillColor=#f9f7ed;strokeColor=#36393d;" vertex="1" parent="WIyWlLk6GJQsqaUBKTNV-1">
          <mxGeometry x="-24" y="220" width="130" height="80" as="geometry" />
        </mxCell>
        <mxCell id="AsCqRjYwgtlMNmhTpIwb-40" value="Details:" style="rounded=1;whiteSpace=wrap;html=1;fontSize=24;glass=0;strokeWidth=1;shadow=0;" vertex="1" parent="WIyWlLk6GJQsqaUBKTNV-1">
          <mxGeometry x="-24" y="340" width="130" height="70" as="geometry" />
        </mxCell>
        <mxCell id="AsCqRjYwgtlMNmhTpIwb-62" style="edgeStyle=orthogonalEdgeStyle;rounded=0;orthogonalLoop=1;jettySize=auto;html=1;exitX=0.5;exitY=1;exitDx=0;exitDy=0;dashed=1;strokeWidth=3;fillColor=#6a00ff;strokeColor=#3700CC;dashPattern=1 1;" edge="1" parent="WIyWlLk6GJQsqaUBKTNV-1" source="AsCqRjYwgtlMNmhTpIwb-43" target="AsCqRjYwgtlMNmhTpIwb-18">
          <mxGeometry relative="1" as="geometry">
            <Array as="points">
              <mxPoint x="895" y="150" />
              <mxPoint x="655" y="150" />
            </Array>
          </mxGeometry>
        </mxCell>
        <mxCell id="AsCqRjYwgtlMNmhTpIwb-63" style="edgeStyle=orthogonalEdgeStyle;rounded=0;orthogonalLoop=1;jettySize=auto;html=1;exitX=0.5;exitY=1;exitDx=0;exitDy=0;dashed=1;strokeWidth=3;fillColor=#6a00ff;strokeColor=#3700CC;dashPattern=1 1;" edge="1" parent="WIyWlLk6GJQsqaUBKTNV-1" source="AsCqRjYwgtlMNmhTpIwb-43" target="AsCqRjYwgtlMNmhTpIwb-46">
          <mxGeometry relative="1" as="geometry">
            <Array as="points">
              <mxPoint x="895" y="150" />
              <mxPoint x="921" y="150" />
            </Array>
          </mxGeometry>
        </mxCell>
        <mxCell id="AsCqRjYwgtlMNmhTpIwb-43" value="remote_handler" style="rounded=1;whiteSpace=wrap;html=1;fontSize=16;glass=0;strokeWidth=1;shadow=0;fillColor=#d5e8d4;strokeColor=#82b366;gradientColor=#97d077;" vertex="1" parent="WIyWlLk6GJQsqaUBKTNV-1">
          <mxGeometry x="830" y="80" width="130" height="30" as="geometry" />
        </mxCell>
        <mxCell id="AsCqRjYwgtlMNmhTpIwb-58" style="edgeStyle=orthogonalEdgeStyle;rounded=0;orthogonalLoop=1;jettySize=auto;html=1;exitX=0.5;exitY=1;exitDx=0;exitDy=0;dashed=1;fillColor=#a20025;strokeColor=#6F0000;strokeWidth=3;dashPattern=1 1;" edge="1" parent="WIyWlLk6GJQsqaUBKTNV-1" source="AsCqRjYwgtlMNmhTpIwb-44" target="WIyWlLk6GJQsqaUBKTNV-3">
          <mxGeometry relative="1" as="geometry">
            <Array as="points">
              <mxPoint x="500" y="110" />
              <mxPoint x="500" y="130" />
              <mxPoint x="220" y="130" />
            </Array>
          </mxGeometry>
        </mxCell>
        <mxCell id="AsCqRjYwgtlMNmhTpIwb-59" style="edgeStyle=orthogonalEdgeStyle;rounded=0;orthogonalLoop=1;jettySize=auto;html=1;exitX=0.5;exitY=1;exitDx=0;exitDy=0;dashed=1;fillColor=#a20025;strokeColor=#6F0000;strokeWidth=3;dashPattern=1 1;" edge="1" parent="WIyWlLk6GJQsqaUBKTNV-1" source="AsCqRjYwgtlMNmhTpIwb-44" target="AsCqRjYwgtlMNmhTpIwb-7">
          <mxGeometry relative="1" as="geometry">
            <Array as="points">
              <mxPoint x="500" y="110" />
              <mxPoint x="500" y="130" />
              <mxPoint x="404" y="130" />
            </Array>
          </mxGeometry>
        </mxCell>
        <mxCell id="AsCqRjYwgtlMNmhTpIwb-60" style="edgeStyle=orthogonalEdgeStyle;rounded=0;orthogonalLoop=1;jettySize=auto;html=1;exitX=0.5;exitY=1;exitDx=0;exitDy=0;dashed=1;strokeWidth=3;dashPattern=1 1;" edge="1" parent="WIyWlLk6GJQsqaUBKTNV-1" source="AsCqRjYwgtlMNmhTpIwb-44" target="AsCqRjYwgtlMNmhTpIwb-9">
          <mxGeometry relative="1" as="geometry">
            <Array as="points">
              <mxPoint x="500" y="110" />
              <mxPoint x="500" y="130" />
              <mxPoint x="1107" y="130" />
            </Array>
          </mxGeometry>
        </mxCell>
        <mxCell id="AsCqRjYwgtlMNmhTpIwb-61" style="edgeStyle=orthogonalEdgeStyle;rounded=0;orthogonalLoop=1;jettySize=auto;html=1;exitX=0.5;exitY=1;exitDx=0;exitDy=0;entryX=0.5;entryY=0;entryDx=0;entryDy=0;dashed=1;fillColor=#a20025;strokeColor=#6F0000;strokeWidth=3;dashPattern=1 1;" edge="1" parent="WIyWlLk6GJQsqaUBKTNV-1" source="AsCqRjYwgtlMNmhTpIwb-44" target="AsCqRjYwgtlMNmhTpIwb-10">
          <mxGeometry relative="1" as="geometry">
            <Array as="points">
              <mxPoint x="500" y="110" />
              <mxPoint x="500" y="130" />
              <mxPoint x="1309" y="130" />
            </Array>
          </mxGeometry>
        </mxCell>
        <mxCell id="AsCqRjYwgtlMNmhTpIwb-44" value="local_handler" style="rounded=1;whiteSpace=wrap;html=1;fontSize=16;glass=0;strokeWidth=1;shadow=0;fillColor=#d5e8d4;strokeColor=#82b366;gradientColor=#97d077;" vertex="1" parent="WIyWlLk6GJQsqaUBKTNV-1">
          <mxGeometry x="430" y="80" width="130" height="30" as="geometry" />
        </mxCell>
        <mxCell id="AsCqRjYwgtlMNmhTpIwb-52" style="edgeStyle=orthogonalEdgeStyle;rounded=0;orthogonalLoop=1;jettySize=auto;html=1;exitX=1;exitY=0.5;exitDx=0;exitDy=0;entryX=0;entryY=0.5;entryDx=0;entryDy=0;" edge="1" parent="WIyWlLk6GJQsqaUBKTNV-1" source="AsCqRjYwgtlMNmhTpIwb-46" target="AsCqRjYwgtlMNmhTpIwb-3">
          <mxGeometry relative="1" as="geometry" />
        </mxCell>
        <mxCell id="AsCqRjYwgtlMNmhTpIwb-53" style="edgeStyle=orthogonalEdgeStyle;rounded=0;orthogonalLoop=1;jettySize=auto;html=1;exitX=0.5;exitY=1;exitDx=0;exitDy=0;entryX=0.5;entryY=0;entryDx=0;entryDy=0;" edge="1" parent="WIyWlLk6GJQsqaUBKTNV-1" source="AsCqRjYwgtlMNmhTpIwb-46" target="AsCqRjYwgtlMNmhTpIwb-16">
          <mxGeometry relative="1" as="geometry" />
        </mxCell>
        <mxCell id="AsCqRjYwgtlMNmhTpIwb-46" value="Result Transfer" style="rounded=1;whiteSpace=wrap;html=1;fontSize=18;glass=0;strokeWidth=1;shadow=0;fillColor=#f9f7ed;strokeColor=#36393d;" vertex="1" parent="WIyWlLk6GJQsqaUBKTNV-1">
          <mxGeometry x="851" y="220" width="140" height="80" as="geometry" />
        </mxCell>
        <mxCell id="AsCqRjYwgtlMNmhTpIwb-47" value="Convert raw to .dcm" style="rounded=1;whiteSpace=wrap;html=1;fontSize=12;glass=0;strokeWidth=1;shadow=0;" vertex="1" parent="WIyWlLk6GJQsqaUBKTNV-1">
          <mxGeometry x="1037" y="340" width="140" height="70" as="geometry" />
        </mxCell>
        <mxCell id="AsCqRjYwgtlMNmhTpIwb-51" style="edgeStyle=orthogonalEdgeStyle;rounded=0;orthogonalLoop=1;jettySize=auto;html=1;exitX=1;exitY=0.5;exitDx=0;exitDy=0;" edge="1" parent="WIyWlLk6GJQsqaUBKTNV-1" source="AsCqRjYwgtlMNmhTpIwb-2" target="AsCqRjYwgtlMNmhTpIwb-46">
          <mxGeometry relative="1" as="geometry" />
        </mxCell>
        <mxCell id="AsCqRjYwgtlMNmhTpIwb-28" style="edgeStyle=orthogonalEdgeStyle;rounded=0;orthogonalLoop=1;jettySize=auto;html=1;exitX=0.5;exitY=1;exitDx=0;exitDy=0;entryX=0.5;entryY=0;entryDx=0;entryDy=0;" edge="1" parent="WIyWlLk6GJQsqaUBKTNV-1" source="AsCqRjYwgtlMNmhTpIwb-2" target="AsCqRjYwgtlMNmhTpIwb-15">
          <mxGeometry relative="1" as="geometry">
            <Array as="points">
              <mxPoint x="655" y="320" />
              <mxPoint x="555" y="320" />
            </Array>
          </mxGeometry>
        </mxCell>
        <mxCell id="AsCqRjYwgtlMNmhTpIwb-30" style="edgeStyle=orthogonalEdgeStyle;rounded=0;orthogonalLoop=1;jettySize=auto;html=1;" edge="1" parent="WIyWlLk6GJQsqaUBKTNV-1" source="AsCqRjYwgtlMNmhTpIwb-2">
          <mxGeometry relative="1" as="geometry">
            <mxPoint x="680" y="340" as="targetPoint" />
          </mxGeometry>
        </mxCell>
        <mxCell id="AsCqRjYwgtlMNmhTpIwb-33" style="edgeStyle=orthogonalEdgeStyle;rounded=0;orthogonalLoop=1;jettySize=auto;html=1;exitX=0.5;exitY=1;exitDx=0;exitDy=0;" edge="1" parent="WIyWlLk6GJQsqaUBKTNV-1" source="AsCqRjYwgtlMNmhTpIwb-2">
          <mxGeometry relative="1" as="geometry">
            <mxPoint x="690" y="340" as="targetPoint" />
          </mxGeometry>
        </mxCell>
        <mxCell id="AsCqRjYwgtlMNmhTpIwb-34" style="edgeStyle=orthogonalEdgeStyle;rounded=0;orthogonalLoop=1;jettySize=auto;html=1;exitX=0.5;exitY=1;exitDx=0;exitDy=0;" edge="1" parent="WIyWlLk6GJQsqaUBKTNV-1" source="AsCqRjYwgtlMNmhTpIwb-2">
          <mxGeometry relative="1" as="geometry">
            <mxPoint x="700" y="340" as="targetPoint" />
          </mxGeometry>
        </mxCell>
        <mxCell id="AsCqRjYwgtlMNmhTpIwb-35" style="edgeStyle=orthogonalEdgeStyle;rounded=0;orthogonalLoop=1;jettySize=auto;html=1;exitX=0.5;exitY=1;exitDx=0;exitDy=0;" edge="1" parent="WIyWlLk6GJQsqaUBKTNV-1" source="AsCqRjYwgtlMNmhTpIwb-2">
          <mxGeometry relative="1" as="geometry">
            <mxPoint x="710" y="340" as="targetPoint" />
          </mxGeometry>
        </mxCell>
        <mxCell id="AsCqRjYwgtlMNmhTpIwb-36" style="edgeStyle=orthogonalEdgeStyle;rounded=0;orthogonalLoop=1;jettySize=auto;html=1;exitX=0.5;exitY=1;exitDx=0;exitDy=0;entryX=0.5;entryY=0;entryDx=0;entryDy=0;" edge="1" parent="WIyWlLk6GJQsqaUBKTNV-1" source="AsCqRjYwgtlMNmhTpIwb-2" target="AsCqRjYwgtlMNmhTpIwb-14">
          <mxGeometry relative="1" as="geometry" />
        </mxCell>
        <mxCell id="AsCqRjYwgtlMNmhTpIwb-37" style="edgeStyle=orthogonalEdgeStyle;rounded=0;orthogonalLoop=1;jettySize=auto;html=1;exitX=0.5;exitY=1;exitDx=0;exitDy=0;entryX=0.5;entryY=0;entryDx=0;entryDy=0;" edge="1" parent="WIyWlLk6GJQsqaUBKTNV-1" source="AsCqRjYwgtlMNmhTpIwb-2" target="AsCqRjYwgtlMNmhTpIwb-26">
          <mxGeometry relative="1" as="geometry" />
        </mxCell>
        <mxCell id="AsCqRjYwgtlMNmhTpIwb-2" value="&lt;font&gt;Remote Computation&lt;/font&gt;" style="rounded=1;whiteSpace=wrap;html=1;fontSize=18;glass=0;strokeWidth=1;shadow=0;fillColor=#f9f7ed;strokeColor=#36393d;" vertex="1" parent="WIyWlLk6GJQsqaUBKTNV-1">
          <mxGeometry x="585" y="220" width="140" height="80" as="geometry" />
        </mxCell>
        <mxCell id="AsCqRjYwgtlMNmhTpIwb-14" value="Beam2 on GPU2" style="rounded=1;whiteSpace=wrap;html=1;fontSize=12;glass=0;strokeWidth=1;shadow=0;" vertex="1" parent="WIyWlLk6GJQsqaUBKTNV-1">
          <mxGeometry x="600" y="340" width="70" height="70" as="geometry" />
        </mxCell>
        <mxCell id="AsCqRjYwgtlMNmhTpIwb-15" value="Beam1 on GPU1" style="rounded=1;whiteSpace=wrap;html=1;fontSize=12;glass=0;strokeWidth=1;shadow=0;" vertex="1" parent="WIyWlLk6GJQsqaUBKTNV-1">
          <mxGeometry x="520" y="340" width="70" height="70" as="geometry" />
        </mxCell>
        <mxCell id="AsCqRjYwgtlMNmhTpIwb-18" value="MoQUI" style="rounded=1;whiteSpace=wrap;html=1;fontSize=16;glass=0;strokeWidth=1;shadow=0;fillColor=#008a00;strokeColor=#005700;fontColor=#ffffff;" vertex="1" parent="WIyWlLk6GJQsqaUBKTNV-1">
          <mxGeometry x="590" y="180" width="130" height="30" as="geometry" />
        </mxCell>
        <mxCell id="AsCqRjYwgtlMNmhTpIwb-26" value="Beam8 on GPU8" style="rounded=1;whiteSpace=wrap;html=1;fontSize=12;glass=0;strokeWidth=1;shadow=0;" vertex="1" parent="WIyWlLk6GJQsqaUBKTNV-1">
          <mxGeometry x="725" y="340" width="70" height="70" as="geometry" />
        </mxCell>
      </root>
    </mxGraphModel>
  </diagram>
</mxfile>
